<svg xmlns="http://www.w3.org/2000/svg" width="40" height="40">
    <g fill="none" fill-rule="nonzero" transform="translate(4 4)">
        <circle cx="16" cy="16" r="16" fill="#639"/>
        <g fill="#FFF">
            <path d="M7.086 24.914c-2.4-2.4-3.657-5.6-3.657-8.685L15.886 28.57c-3.2-.114-6.4-1.257-8.8-3.657ZM18.743 28.229 3.77 13.257C5.03 7.657 10.057 3.43 16 3.43c4.229 0 7.886 2.057 10.171 5.142l-1.714 1.486C22.514 7.43 19.43 5.714 16 5.714c-4.457 0-8.229 2.857-9.714 6.857l13.143 13.143c3.314-1.143 5.828-4 6.628-7.428h-5.486V16h8c0 5.943-4.228 10.971-9.828 12.229Z"/>
        </g>
    </g>
</svg>
