<?xml version="1.0" encoding="UTF-8"?>
<svg width="40px" height="40px" viewBox="0 0 40 40" version="1.1" xmlns="http://www.w3.org/2000/svg">
    <g id="Plugin-Icon" stroke="none" stroke-width="1" fill="none" fill-rule="evenodd">
        <g id="Gatsby_Monogram" transform="translate(4.000000, 4.000000)" fill-rule="nonzero">
            <circle id="Oval" fill="#663399" cx="16" cy="16" r="16"/>
            <g id="Group" transform="translate(3.428571, 3.428571)" fill="#FFFFFF">
                <path d="M3.65714286,21.4857143 C1.25714286,19.0857143 0,15.8857143 0,12.8 L12.4571429,25.1428571 C9.25714286,25.0285714 6.05714286,23.8857143 3.65714286,21.4857143 Z"
                      id="Path"/>
                <path d="M15.3142857,24.8 L0.342857143,9.82857143 C1.6,4.22857143 6.62857143,0 12.5714286,0 C16.8,0 20.4571429,2.05714286 22.7428571,5.14285714 L21.0285714,6.62857143 C19.0857143,4 16,2.28571429 12.5714286,2.28571429 C8.11428571,2.28571429 4.34285714,5.14285714 2.85714286,9.14285714 L16,22.2857143 C19.3142857,21.1428571 21.8285714,18.2857143 22.6285714,14.8571429 L17.1428571,14.8571429 L17.1428571,12.5714286 L25.1428571,12.5714286 C25.1428571,18.5142857 20.9142857,23.5428571 15.3142857,24.8 Z"
                      id="Path"/>
            </g>
        </g>
    </g>
</svg>
