<?xml version="1.0" encoding="UTF-8"?>
<svg width="16px" height="16px" viewBox="0 0 16 16" version="1.1" xmlns="http://www.w3.org/2000/svg">
    <g id="Generator-Icon" stroke="none" stroke-width="1" fill="none" fill-rule="evenodd">
        <g id="Gatsby_Monogram" transform="translate(2.000000, 2.000000)" fill-rule="nonzero">
            <circle id="Oval" fill="#663399" cx="6.4" cy="6.4" r="6.4"/>
            <g id="Group" transform="translate(1.371429, 1.371429)" fill="#FFFFFF">
                <path d="M1.46285714,8.59428571 C0.502857143,7.63428571 0,6.35428571 0,5.12 L4.98285714,10.0571429 C3.70285714,10.0114286 2.42285714,9.55428571 1.46285714,8.59428571 Z"
                      id="Path"/>
                <path d="M6.12571429,9.92 L0.137142857,3.93142857 C0.64,1.69142857 2.65142857,0 5.02857143,0 C6.72,0 8.18285714,0.822857143 9.09714286,2.05714286 L8.41142857,2.65142857 C7.63428571,1.6 6.4,0.914285714 5.02857143,0.914285714 C3.24571429,0.914285714 1.73714286,2.05714286 1.14285714,3.65714286 L6.4,8.91428571 C7.72571429,8.45714286 8.73142857,7.31428571 9.05142857,5.94285714 L6.85714286,5.94285714 L6.85714286,5.02857143 L10.0571429,5.02857143 C10.0571429,7.40571429 8.36571429,9.41714286 6.12571429,9.92 Z"
                      id="Path"/>
            </g>
        </g>
    </g>
</svg>
