<svg xmlns="http://www.w3.org/2000/svg" width="16" height="16">
    <g fill="none" fill-rule="nonzero" transform="translate(2 2)">
        <circle cx="6.4" cy="6.4" r="6.4" fill="#639"/>
        <g fill="#FFF">
            <path d="M2.834 9.966A4.962 4.962 0 0 1 1.371 6.49l4.983 4.938c-1.28-.046-2.56-.503-3.52-1.463ZM7.497 11.291 1.51 5.303C2.01 3.063 4.023 1.37 6.4 1.37c1.691 0 3.154.823 4.069 2.058l-.686.594C9.006 2.97 7.77 2.286 6.4 2.286c-1.783 0-3.291 1.143-3.886 2.743l5.257 5.257c1.326-.457 2.332-1.6 2.652-2.972H8.229V6.4h3.2c0 2.377-1.692 4.389-3.932 4.891Z"/>
        </g>
    </g>
</svg>
